<?xml version="1.0" encoding="utf-8"?>
<!-- Generator: Adobe Illustrator 16.0.0, SVG Export Plug-In . SVG Version: 6.00 Build 0)  -->
<!DOCTYPE svg PUBLIC "-//W3C//DTD SVG 1.1//EN" "http://www.w3.org/Graphics/SVG/1.1/DTD/svg11.dtd">
<svg version="1.1" id="Capa_1" xmlns="http://www.w3.org/2000/svg" xmlns:xlink="http://www.w3.org/1999/xlink" x="0px" y="0px"
	 width="190px" height="115.673px" viewBox="321.424 237.231 190 115.673" enable-background="new 321.424 237.231 190 115.673"
	 xml:space="preserve">
<polygon fill="#E41F3E" points="342.072,237.262 362.721,257.914 342.072,278.561 321.424,257.914 "/>
<polygon fill="#E41F3E" points="366.853,262.04 387.499,282.692 366.852,303.339 346.203,282.692 "/>
<polygon fill="#E41F3E" points="391.631,286.819 412.277,307.472 391.63,328.12 370.982,307.472 "/>
<rect x="401.784" y="317.655" transform="matrix(0.7071 0.7071 -0.7071 0.7071 356.9154 -197.1161)" fill="#E41F3E" width="29.203" height="29.201"/>
<polygon fill="#E41F3E" points="441.189,286.817 461.837,307.469 441.189,328.118 420.54,307.469 "/>
<rect x="451.396" y="268.086" transform="matrix(0.707 0.7072 -0.7072 0.707 336.4204 -246.7236)" fill="#E41F3E" width="29.202" height="29.2"/>
<rect x="476.173" y="243.306" transform="matrix(0.707 0.7072 -0.7072 0.707 326.1686 -271.5082)" fill="#E41F3E" width="29.203" height="29.202"/>
<rect x="401.804" y="268.059" transform="matrix(0.707 0.7072 -0.7072 0.707 321.8741 -211.6624)" fill="#E41F3E" width="29.204" height="29.201"/>
<rect x="426.58" y="243.28" transform="matrix(0.707 0.7072 -0.7072 0.707 311.6096 -236.442)" fill="#E41F3E" width="29.204" height="29.202"/>
<rect x="377.034" y="243.314" transform="matrix(0.707 0.7072 -0.7072 0.707 297.1451 -201.4003)" fill="#E41F3E" width="29.203" height="29.201"/>
</svg>
